Title:
Great Expectations

Country:
UK/2012

Language:
English

No Subtitle

Director:
Mike Newell

Writers:
Charles Dickens (novel), David Nicholls (screenplay)

Stars:
Ralph Fiennes, Helena Bonham Carter, Robbie Coltrane

Synopsis:
A humble orphan suddenly becomes a gentleman with the help of an unknown benefactor. 

Trivia:

*Nominated BAFTA Film Award 2013 - Costume Design

*Official Selection Toronto International Film Festival

*Official Selection Rio de Janeiro International Film Festival

Imdb:  
http://www.imdb.com/title/tt1836808

Trailer:  
http://outnow.ch/Movies/2012/GreatExpectations/Trailers/trailer1_en

Media Info:

General
Complete name                            : Great.Expectations.2012.BRRip.XviD.AC3.HORiZON-ArtSubs
Format                                   : AVI
Format/Info                              : Audio Video Interleave
Format profile                           : OpenDML
File size                                : 1.80 GiB
Duration                                 : 2h 8mn
Overall bit rate                         : 2 003 Kbps
Writing application                      : Lavf52.94.0

Video
ID                                       : 0
Format                                   : MPEG-4 Visual
Format profile                           : Simple@L3
Format settings, BVOP                    : No
Format settings, QPel                    : No
Format settings, GMC                     : No warppoints
Format settings, Matrix                  : Default (H.263)
Codec ID                                 : XVID
Codec ID/Hint                            : XviD
Duration                                 : 2h 8mn
Bit rate                                 : 1 768 Kbps
Width                                    : 1 280 pixels
Height                                   : 544 pixels
Display aspect ratio                     : 2.35:1
Frame rate                               : 24.000 fps
Color space                              : YUV
Chroma subsampling                       : 4:2:0
Bit depth                                : 8 bits
Scan type                                : Progressive
Compression mode                         : Lossy
Bits/(Pixel*Frame)                       : 0.106
Stream size                              : 1.59 GiB (88%)
Writing library                          : XviD 1.2.1 (UTC 2008-12-04)

Audio
ID                                       : 1
Format                                   : AC-3
Format/Info                              : Audio Coding 3
Mode extension                           : CM (complete main)
Format settings, Endianness              : Big
Codec ID                                 : 2000
Duration                                 : 2h 8mn
Bit rate mode                            : Constant
Bit rate                                 : 224 Kbps
Channel(s)                               : 2 channels
Channel positions                        : Front: L R
Sampling rate                            : 48.0 KHz
Bit depth                                : 16 bits
Compression mode                         : Lossy
Stream size                              : 206 MiB (11%)
Alignment                                : Aligned on interleaves
Interleave, duration                     : 32 ms (0.77 video frame)
Interleave, preload duration             : 32 ms

